<?xml version="1.0" standalone="no"?><!DOCTYPE svg PUBLIC "-//W3C//DTD SVG 1.1//EN" "http://www.w3.org/Graphics/SVG/1.1/DTD/svg11.dtd"><svg t="1749180524910" class="icon" viewBox="0 0 1024 1024" version="1.1" xmlns="http://www.w3.org/2000/svg" p-id="26499" xmlns:xlink="http://www.w3.org/1999/xlink" width="200" height="200"><path d="M512 512m-512 0a512 512 0 1 0 1024 0 512 512 0 1 0-1024 0Z" fill="#FF9786" fill-opacity=".229" p-id="26500"></path><path d="M368.0256 545.867453c87.826863 68.909811 211.914105 68.694232 299.503832-0.506611 163.160926 82.620632 185.936842 234.118737 190.701136 284.564211C943.890863 742.324547 991.760168 625.038821 991.663158 502.978021 991.6416 243.032926 779.296337 32.315284 517.357137 32.336842 255.428716 32.3584 43.094232 243.0976 43.115789 503.053474 43.115789 630.158821 94.132547 745.299537 176.613053 829.978947c4.775074-48.505263 28.887579-201.167495 191.412547-284.111494zM511.967663 172.463158C616.027621 172.463158 700.631579 254.674189 700.631579 355.7376 700.631579 456.790232 616.016842 538.947368 511.967663 538.947368 407.972379 538.947368 323.368421 456.854905 323.368421 355.7376S407.983158 172.463158 511.967663 172.463158z" fill="#FF9786" fill-opacity=".48" p-id="26501"></path></svg>