<?xml version="1.0" standalone="no"?><!DOCTYPE svg PUBLIC "-//W3C//DTD SVG 1.1//EN" "http://www.w3.org/Graphics/SVG/1.1/DTD/svg11.dtd"><svg t="1749180517822" class="icon" viewBox="0 0 1170 1024" version="1.1" xmlns="http://www.w3.org/2000/svg" p-id="26345" xmlns:xlink="http://www.w3.org/1999/xlink" width="228.515625" height="200"><path d="M521.142857 1024c-281.6 0-512-230.4-512-512s230.4-512 512-512 512 230.4 512 512-230.4 512-512 512z m6.4-812.8c-89.6 0-160 76.8-160 160 0 89.6 76.8 166.4 160 166.4 89.6 0 166.4-76.8 166.4-166.4-6.4-83.2-76.8-160-166.4-160z m96 345.6c-51.2-6.4-102.4 0-147.2 0C354.742857 550.4 265.142857 646.4 265.142857 768c0 19.2 6.4 32 25.6 38.4 12.8 12.8 32 12.8 51.2 19.2 64 6.4 128 6.4 198.4 6.4 38.4 0 96 0 140.8-6.4 25.6 0 51.2-6.4 76.8-12.8 19.2-6.4 32-19.2 32-38.4 12.8-108.8-64-204.8-166.4-217.6z" fill="#83ADE7" p-id="26346"></path></svg>