<?xml version="1.0" standalone="no"?><!DOCTYPE svg PUBLIC "-//W3C//DTD SVG 1.1//EN" "http://www.w3.org/Graphics/SVG/1.1/DTD/svg11.dtd"><svg t="1749179815563" class="icon" viewBox="0 0 1109 1024" version="1.1" xmlns="http://www.w3.org/2000/svg" p-id="15162" xmlns:xlink="http://www.w3.org/1999/xlink" width="216.6015625" height="200"><path d="M1024 146.261333L688.725333 481.536 658.261333 512 640 493.738667 621.738667 512l-30.378667-30.464-210.773333-210.688-288.768 298.410667L61.184 597.333333 0 541.184l30.634667-28.16L334.848 198.826667 365.482667 170.666667l19.114666 17.578666L402.261333 170.666667l30.378667 30.464 207.36 207.36L963.072 85.333333H768V0h341.333333v341.333333h-85.333333V146.261333zM0 682.666667h256v341.333333H0V682.666667z m426.666667 85.333333h256v256H426.666667V768z m426.666666-256h256v512h-256V512z" fill="#1296db" p-id="15163"></path></svg>