<?xml version="1.0" standalone="no"?><!DOCTYPE svg PUBLIC "-//W3C//DTD SVG 1.1//EN" "http://www.w3.org/Graphics/SVG/1.1/DTD/svg11.dtd"><svg t="1749180282594" class="icon" viewBox="0 0 1024 1024" version="1.1" xmlns="http://www.w3.org/2000/svg" p-id="20362" xmlns:xlink="http://www.w3.org/1999/xlink" width="200" height="200"><path d="M768 477.866667v34.133333a34.133333 34.133333 0 0 1-34.133333 34.133333H290.133333a34.133333 34.133333 0 0 1-34.133333-34.133333v-34.133333h512z" fill="#1296db" p-id="20363"></path><path d="M870.4 615.099733a34.133333 34.133333 0 0 1 34.048 31.573334l0.085333 2.56V836.266667a68.266667 68.266667 0 0 1-64.853333 68.181333L836.266667 904.533333H187.733333a68.266667 68.266667 0 0 1-68.181333-64.853333L119.466667 836.266667V649.233067a34.133333 34.133333 0 0 1 68.181333-2.56l0.085333 2.56V836.266667h648.533334V649.233067a34.133333 34.133333 0 0 1 34.133333-34.133334zM836.266667 119.466667a68.266667 68.266667 0 0 1 68.181333 64.853333L904.533333 187.733333v187.0336a34.133333 34.133333 0 0 1-68.181333 2.56l-0.085333-2.56V187.733333H187.733333v187.0336a34.133333 34.133333 0 0 1-68.181333 2.56L119.466667 374.749867V187.733333a68.266667 68.266667 0 0 1 64.853333-68.181333L187.733333 119.466667h648.533334z" fill="#1296db" p-id="20364"></path></svg>