<?xml version="1.0" standalone="no"?><!DOCTYPE svg PUBLIC "-//W3C//DTD SVG 1.1//EN" "http://www.w3.org/Graphics/SVG/1.1/DTD/svg11.dtd"><svg t="1749179575977" class="icon" viewBox="0 0 1024 1024" version="1.1" xmlns="http://www.w3.org/2000/svg" p-id="12007" xmlns:xlink="http://www.w3.org/1999/xlink" width="200" height="200"><path d="M469.333333 106.666667a42.666667 42.666667 0 0 1 3.2 85.226666L469.333333 192H234.666667a42.666667 42.666667 0 0 0-42.56 39.466667L192 234.666667v554.666666a42.666667 42.666667 0 0 0 39.466667 42.56L234.666667 832h554.666666a42.666667 42.666667 0 0 0 42.56-39.466667L832 789.333333V469.333333l0.106667-3.029333a42.666667 42.666667 0 0 1 85.226666 3.2V789.333333a128 128 0 0 1-128 128H234.666667a128 128 0 0 1-128-128V234.666667a128 128 0 0 1 128-128h234.666666z m316.373334 9.173333l2.773333 2.368 114.773333 106.517333c27.626667 25.621333 10.794667 71.253333-25.749333 73.813334L874.24 298.666667H780.8c-141.376 0-256 114.624-256 256a42.666667 42.666667 0 1 1-85.333333 0c0-181.781333 142.08-330.368 321.28-340.757334l5.141333-0.256-35.456-32.896a42.666667 42.666667 0 0 1-4.629333-57.493333l2.389333-2.794667a42.666667 42.666667 0 0 1 57.493333-4.650666z" fill="#1296db" p-id="12008"></path></svg>