<?xml version="1.0" standalone="no"?><!DOCTYPE svg PUBLIC "-//W3C//DTD SVG 1.1//EN" "http://www.w3.org/Graphics/SVG/1.1/DTD/svg11.dtd"><svg t="1749181661078" class="icon" viewBox="0 0 1024 1024" version="1.1" xmlns="http://www.w3.org/2000/svg" p-id="28436" xmlns:xlink="http://www.w3.org/1999/xlink" width="200" height="200"><path d="M830.577778 115.484444a34.133333 34.133333 0 0 1 34.133333 34.133334v739.555555a34.133333 34.133333 0 0 1-34.133333 34.133334h-625.777778a34.133333 34.133333 0 0 1-34.133333-34.133334v-739.555555a34.133333 34.133333 0 0 1 34.133333-34.133334z m-34.133334 68.266667H238.933333v671.288889H796.444444V183.751111z m-86.641777 475.648a34.133333 34.133333 0 0 1 5.518222 67.811556l-5.518222 0.455111h-380.017778a34.133333 34.133333 0 0 1-5.575111-67.811556l5.575111-0.455111h380.017778z m10.183111-356.181333a34.133333 34.133333 0 0 1 7.736889 43.008l-3.527111 5.12-123.335112 146.830222a34.133333 34.133333 0 0 1-45.056 6.485333l-4.551111-3.640889-98.417777-93.070222-79.928889 107.633778a34.133333 34.133333 0 0 1-43.064889 9.955556l-4.721778-2.901334a34.133333 34.133333 0 0 1-9.955556-43.064889l2.901334-4.721777 102.968889-138.467556a34.133333 34.133333 0 0 1 46.08-8.135111l4.778666 3.697778 99.896889 94.549333 100.124445-119.068444a34.133333 34.133333 0 0 1 48.071111-4.209778z" fill="#1296db" p-id="28437"></path></svg>